<svg viewBox="0 0 200 200" xmlns="http://www.w3.org/2000/svg">
  <path fill="#FCF0EE" d="M32.6,-62.2C40.5,-51.9,43.8,-39.6,51.5,-28.9C59.1,-18.1,71.2,-9.1,74.8,2.1C78.4,13.2,73.6,26.5,65.6,36.7C57.6,46.9,46.5,54,35,60.7C23.6,67.3,11.8,73.4,3.5,67.3C-4.7,61.1,-9.4,42.7,-16.8,33.8C-24.3,24.8,-34.6,25.4,-46.5,21.3C-58.4,17.3,-71.9,8.6,-76.7,-2.7C-81.4,-14.1,-77.4,-28.3,-65.6,-32.3C-53.7,-36.4,-33.9,-30.5,-21.7,-38.2C-9.4,-46,-4.7,-67.5,3.8,-74.1C12.4,-80.7,24.7,-72.5,32.6,-62.2Z" transform="translate(100 100)" />
</svg>