<svg style="width:0;height:0;position:absolute;" aria-hidden="true" focusable="false"
viewBox="0 0 200 200" xmlns="http://www.w3.org/2000/svg">
  <defs>
  <linearGradient id="my-cool-gradient" x1="0" y1="0" x2="100%" y2="100%">
    <stop offset="0%" stop-color="#EC8558" /> 
  
 
    <stop offset="30%" stop-color="#E76945" />
  <stop offset="61%" stop-color="#E85858" /> 
    <stop offset="100%" stop-color="#E85858" />
  </linearGradient>
  </defs>
 <path id="heart" fill="url(#my-cool-gradient)" d="M48.8,-59.9C60.5,-48.3,65.4,-30.4,65.5,-13.9C65.7,2.6,61.1,17.7,54.7,34.1C48.2,50.6,39.8,68.5,26.9,72.7C13.9,76.9,-3.6,67.5,-21.9,60.6C-40.3,53.8,-59.4,49.6,-61.8,38.9C-64.1,28.2,-49.7,11,-46.7,-8.6C-43.8,-28.2,-52.2,-50.3,-46.3,-62.8C-40.4,-75.4,-20.2,-78.5,-0.8,-77.6C18.5,-76.6,37.1,-71.4,48.8,-59.9Z" transform="translate(100 100)" />
</svg>