
<svg style="width:0;height:0;position:absolute;" aria-hidden="true" focusable="false" 
width="1em" height="1em" 
viewBox="0 0 24 24"
xmlns="http://www.w3.org/2000/svg">
  <defs>
  <linearGradient id="my-cool-gradient" x1="0" y1="0" x2="100%" y2="100%">
    <stop offset="0%" stop-color="#EC8558" /> 
  
 
    <stop offset="30%" stop-color="#E76945" />
  <stop offset="41%" stop-color="#EA8249" /> 
    <stop offset="65%" stop-color="#E85858" />
  </linearGradient>
  </defs>
<path fill="url(#my-cool-gradient)" d="M6 8c0-2.21 1.79-4 4-4s4 1.79 4 4s-1.79 4-4 4s-4-1.79-4-4m6 10.2c0-.96.5-1.86 1.2-2.46v-.24c0-.39.07-.76.18-1.12c-1.03-.24-2.17-.38-3.38-.38c-4.42 0-8 1.79-8 4v2h10v-1.8m10 .1v3.5c0 .6-.6 1.2-1.3 1.2h-5.5c-.6 0-1.2-.6-1.2-1.3v-3.5c0-.6.6-1.2 1.2-1.2v-1.5c0-1.4 1.4-2.5 2.8-2.5s2.8 1.1 2.8 2.5V17c.6 0 1.2.6 1.2 1.3m-2.5-2.8c0-.8-.7-1.3-1.5-1.3s-1.5.5-1.5 1.3V17h3v-1.5Z"/>
</svg>